# xmcd
# 
# Track frame offsets:
#     150
#     12324
#     23434
#     36852
#     48256
#     63506
#     77195
#     89727
#     103005
#     115662
#     126917
#     139182
#     153345
#     166432
#     179116
#     192806
#     202740
#     215498
#     228062
#     241426
# 
# Disc length: 3370
# 
# Revision: 2
# Processed by: cddbd v1.5.2PL0 Copyright (c) Steve Scherf et al.
# Submitted via: fre:ac v1.0.17
# 
DISCID=0e0d2814
DTITLE=B.B. King - B.B. King and The Kings Of Electric Blues [CD 1)
DYEAR=0
DGENRE=Blues
TTITLE0=Miss Martha King
TTITLE1=When Your Baby Packs Up And Goes
TTITLE2=Three O'clock Blues
TTITLE3=Shake It Up And Go
TTITLE4=My Own Fault, Darlin'
TTITLE5=You Know I Love You
TTITLE6=Boogie Woogie Woman
TTITLE7=Woke Up This Morning
TTITLE8=Please Love Me
TTITLE9=Byb Bye! Baby
TTITLE10=Please Hurry Home
TTITLE11=Whole Lotta Love
TTITLE12=When My Heart Beats Like A Hammer
TTITLE13=Every Day I Have The Blues
TTITLE14=You Upset Me Baby
TTITLE15=Jump With You Baby
TTITLE16=What Can I Do?
TTITLE17=Ten Long Years
TTITLE18=Crying Won't Help You
TTITLE19=Did You Ever Love A Woman
EXTD=
EXTT0=
EXTT1=
EXTT2=
EXTT3=
EXTT4=
EXTT5=
EXTT6=
EXTT7=
EXTT8=
EXTT9=
EXTT10=
EXTT11=
EXTT12=
EXTT13=
EXTT14=
EXTT15=
EXTT16=
EXTT17=
EXTT18=
EXTT19=
PLAYORDER=
